<mxfile host="app.diagrams.net" modified="2023-02-13T02:20:41.645Z" agent="5.0 (Windows)" etag="r6SCF1c9aON2laCwVH7v" version="20.8.19" type="github">
  <diagram name="第 1 页" id="GiBOQHFT7XzUcaniyEGX">
    <mxGraphModel dx="1050" dy="566" grid="1" gridSize="10" guides="1" tooltips="1" connect="1" arrows="1" fold="1" page="1" pageScale="1" pageWidth="827" pageHeight="1169" math="0" shadow="0">
      <root>
        <mxCell id="0" />
        <mxCell id="1" parent="0" />
        <mxCell id="z5tMKnNC0yyqLdrw48rh-1" value="" style="shape=table;startSize=0;container=1;collapsible=0;childLayout=tableLayout;fontSize=16;" parent="1" vertex="1">
          <mxGeometry x="120" y="170" width="120" height="160" as="geometry" />
        </mxCell>
        <mxCell id="z5tMKnNC0yyqLdrw48rh-2" value="" style="shape=tableRow;horizontal=0;startSize=0;swimlaneHead=0;swimlaneBody=0;strokeColor=inherit;top=0;left=0;bottom=0;right=0;collapsible=0;dropTarget=0;fillColor=none;points=[[0,0.5],[1,0.5]];portConstraint=eastwest;fontSize=16;" parent="z5tMKnNC0yyqLdrw48rh-1" vertex="1">
          <mxGeometry width="120" height="40" as="geometry" />
        </mxCell>
        <mxCell id="z5tMKnNC0yyqLdrw48rh-3" value="cat" style="shape=partialRectangle;html=1;whiteSpace=wrap;connectable=0;strokeColor=inherit;overflow=hidden;fillColor=none;top=0;left=0;bottom=0;right=0;pointerEvents=1;fontSize=16;" parent="z5tMKnNC0yyqLdrw48rh-2" vertex="1">
          <mxGeometry width="60" height="40" as="geometry">
            <mxRectangle width="60" height="40" as="alternateBounds" />
          </mxGeometry>
        </mxCell>
        <mxCell id="z5tMKnNC0yyqLdrw48rh-4" value="" style="shape=partialRectangle;html=1;whiteSpace=wrap;connectable=0;strokeColor=inherit;overflow=hidden;fillColor=none;top=0;left=0;bottom=0;right=0;pointerEvents=1;fontSize=16;" parent="z5tMKnNC0yyqLdrw48rh-2" vertex="1">
          <mxGeometry x="60" width="60" height="40" as="geometry">
            <mxRectangle width="60" height="40" as="alternateBounds" />
          </mxGeometry>
        </mxCell>
        <mxCell id="z5tMKnNC0yyqLdrw48rh-6" value="" style="shape=tableRow;horizontal=0;startSize=0;swimlaneHead=0;swimlaneBody=0;strokeColor=inherit;top=0;left=0;bottom=0;right=0;collapsible=0;dropTarget=0;fillColor=none;points=[[0,0.5],[1,0.5]];portConstraint=eastwest;fontSize=16;" parent="z5tMKnNC0yyqLdrw48rh-1" vertex="1">
          <mxGeometry y="40" width="120" height="40" as="geometry" />
        </mxCell>
        <mxCell id="z5tMKnNC0yyqLdrw48rh-7" value="dog" style="shape=partialRectangle;html=1;whiteSpace=wrap;connectable=0;strokeColor=inherit;overflow=hidden;fillColor=none;top=0;left=0;bottom=0;right=0;pointerEvents=1;fontSize=16;" parent="z5tMKnNC0yyqLdrw48rh-6" vertex="1">
          <mxGeometry width="60" height="40" as="geometry">
            <mxRectangle width="60" height="40" as="alternateBounds" />
          </mxGeometry>
        </mxCell>
        <mxCell id="z5tMKnNC0yyqLdrw48rh-8" value="" style="shape=partialRectangle;html=1;whiteSpace=wrap;connectable=0;strokeColor=inherit;overflow=hidden;fillColor=none;top=0;left=0;bottom=0;right=0;pointerEvents=1;fontSize=16;" parent="z5tMKnNC0yyqLdrw48rh-6" vertex="1">
          <mxGeometry x="60" width="60" height="40" as="geometry">
            <mxRectangle width="60" height="40" as="alternateBounds" />
          </mxGeometry>
        </mxCell>
        <mxCell id="z5tMKnNC0yyqLdrw48rh-10" value="" style="shape=tableRow;horizontal=0;startSize=0;swimlaneHead=0;swimlaneBody=0;strokeColor=inherit;top=0;left=0;bottom=0;right=0;collapsible=0;dropTarget=0;fillColor=none;points=[[0,0.5],[1,0.5]];portConstraint=eastwest;fontSize=16;" parent="z5tMKnNC0yyqLdrw48rh-1" vertex="1">
          <mxGeometry y="80" width="120" height="40" as="geometry" />
        </mxCell>
        <mxCell id="z5tMKnNC0yyqLdrw48rh-11" value="fish" style="shape=partialRectangle;html=1;whiteSpace=wrap;connectable=0;strokeColor=inherit;overflow=hidden;fillColor=none;top=0;left=0;bottom=0;right=0;pointerEvents=1;fontSize=16;" parent="z5tMKnNC0yyqLdrw48rh-10" vertex="1">
          <mxGeometry width="60" height="40" as="geometry">
            <mxRectangle width="60" height="40" as="alternateBounds" />
          </mxGeometry>
        </mxCell>
        <mxCell id="z5tMKnNC0yyqLdrw48rh-12" value="" style="shape=partialRectangle;html=1;whiteSpace=wrap;connectable=0;strokeColor=inherit;overflow=hidden;fillColor=none;top=0;left=0;bottom=0;right=0;pointerEvents=1;fontSize=16;" parent="z5tMKnNC0yyqLdrw48rh-10" vertex="1">
          <mxGeometry x="60" width="60" height="40" as="geometry">
            <mxRectangle width="60" height="40" as="alternateBounds" />
          </mxGeometry>
        </mxCell>
        <mxCell id="z5tMKnNC0yyqLdrw48rh-14" style="shape=tableRow;horizontal=0;startSize=0;swimlaneHead=0;swimlaneBody=0;strokeColor=inherit;top=0;left=0;bottom=0;right=0;collapsible=0;dropTarget=0;fillColor=none;points=[[0,0.5],[1,0.5]];portConstraint=eastwest;fontSize=16;" parent="z5tMKnNC0yyqLdrw48rh-1" vertex="1">
          <mxGeometry y="120" width="120" height="40" as="geometry" />
        </mxCell>
        <mxCell id="z5tMKnNC0yyqLdrw48rh-15" value="frog" style="shape=partialRectangle;html=1;whiteSpace=wrap;connectable=0;strokeColor=inherit;overflow=hidden;fillColor=none;top=0;left=0;bottom=0;right=0;pointerEvents=1;fontSize=16;" parent="z5tMKnNC0yyqLdrw48rh-14" vertex="1">
          <mxGeometry width="60" height="40" as="geometry">
            <mxRectangle width="60" height="40" as="alternateBounds" />
          </mxGeometry>
        </mxCell>
        <mxCell id="z5tMKnNC0yyqLdrw48rh-16" style="shape=partialRectangle;html=1;whiteSpace=wrap;connectable=0;strokeColor=inherit;overflow=hidden;fillColor=none;top=0;left=0;bottom=0;right=0;pointerEvents=1;fontSize=16;" parent="z5tMKnNC0yyqLdrw48rh-14" vertex="1">
          <mxGeometry x="60" width="60" height="40" as="geometry">
            <mxRectangle width="60" height="40" as="alternateBounds" />
          </mxGeometry>
        </mxCell>
        <mxCell id="z5tMKnNC0yyqLdrw48rh-20" value="" style="ellipse;whiteSpace=wrap;html=1;aspect=fixed;fillColor=#050505;container=0;" parent="1" vertex="1">
          <mxGeometry x="327" y="128" width="15" height="15" as="geometry" />
        </mxCell>
        <mxCell id="z5tMKnNC0yyqLdrw48rh-21" value="" style="ellipse;whiteSpace=wrap;html=1;aspect=fixed;fillColor=#050505;container=0;" parent="1" vertex="1">
          <mxGeometry x="328" y="127" width="15" height="15" as="geometry" />
        </mxCell>
        <mxCell id="z5tMKnNC0yyqLdrw48rh-23" value="" style="rounded=0;whiteSpace=wrap;html=1;movable=1;resizable=1;rotatable=1;deletable=1;editable=1;locked=0;connectable=1;" parent="1" vertex="1">
          <mxGeometry x="270" y="40" width="100" height="140" as="geometry" />
        </mxCell>
        <mxCell id="z5tMKnNC0yyqLdrw48rh-24" value="front" style="text;html=1;strokeColor=none;fillColor=none;align=center;verticalAlign=middle;whiteSpace=wrap;rounded=0;container=0;" parent="1" vertex="1">
          <mxGeometry x="260" y="70" width="60" height="30" as="geometry" />
        </mxCell>
        <mxCell id="z5tMKnNC0yyqLdrw48rh-25" value="back" style="text;html=1;strokeColor=none;fillColor=none;align=center;verticalAlign=middle;whiteSpace=wrap;rounded=0;container=0;" parent="1" vertex="1">
          <mxGeometry x="260" y="120" width="60" height="30" as="geometry" />
        </mxCell>
        <mxCell id="z5tMKnNC0yyqLdrw48rh-26" value="" style="rounded=0;whiteSpace=wrap;html=1;container=0;" parent="1" vertex="1">
          <mxGeometry x="320" y="70" width="30" height="30" as="geometry" />
        </mxCell>
        <mxCell id="z5tMKnNC0yyqLdrw48rh-27" value="" style="rounded=0;whiteSpace=wrap;html=1;container=0;" parent="1" vertex="1">
          <mxGeometry x="320.5" y="120.5" width="30" height="30" as="geometry" />
        </mxCell>
        <mxCell id="z5tMKnNC0yyqLdrw48rh-28" value="" style="ellipse;whiteSpace=wrap;html=1;aspect=fixed;fillColor=#050505;container=0;" parent="1" vertex="1">
          <mxGeometry x="328" y="78" width="15" height="15" as="geometry" />
        </mxCell>
        <mxCell id="z5tMKnNC0yyqLdrw48rh-29" value="" style="ellipse;whiteSpace=wrap;html=1;aspect=fixed;fillColor=#050505;container=0;" parent="1" vertex="1">
          <mxGeometry x="328" y="127" width="15" height="15" as="geometry" />
        </mxCell>
        <mxCell id="q4AhrPq9-A3EefYoWeDi-3" value="" style="endArrow=classic;html=1;entryX=0.5;entryY=1;entryDx=0;entryDy=0;curved=1;" edge="1" parent="1" target="z5tMKnNC0yyqLdrw48rh-23">
          <mxGeometry width="50" height="50" relative="1" as="geometry">
            <mxPoint x="502" y="175" as="sourcePoint" />
            <mxPoint x="400" y="150" as="targetPoint" />
            <Array as="points">
              <mxPoint x="400" y="310" />
            </Array>
          </mxGeometry>
        </mxCell>
        <mxCell id="q4AhrPq9-A3EefYoWeDi-9" value="" style="endArrow=classic;html=1;curved=1;entryX=0;entryY=0.25;entryDx=0;entryDy=0;" edge="1" parent="1" target="z5tMKnNC0yyqLdrw48rh-31">
          <mxGeometry width="50" height="50" relative="1" as="geometry">
            <mxPoint x="336" y="86" as="sourcePoint" />
            <mxPoint x="580" y="150" as="targetPoint" />
          </mxGeometry>
        </mxCell>
        <mxCell id="z5tMKnNC0yyqLdrw48rh-31" value="" style="rounded=1;whiteSpace=wrap;html=1;movable=1;resizable=1;rotatable=1;deletable=1;editable=1;locked=0;connectable=1;" parent="1" vertex="1">
          <mxGeometry x="417" y="20" width="140" height="180" as="geometry" />
        </mxCell>
        <mxCell id="z5tMKnNC0yyqLdrw48rh-32" value="data" style="text;html=1;strokeColor=none;fillColor=none;align=center;verticalAlign=middle;whiteSpace=wrap;rounded=0;" parent="1" vertex="1">
          <mxGeometry x="414" y="40" width="60" height="30" as="geometry" />
        </mxCell>
        <mxCell id="z5tMKnNC0yyqLdrw48rh-33" value="next" style="text;html=1;strokeColor=none;fillColor=none;align=center;verticalAlign=middle;whiteSpace=wrap;rounded=0;" parent="1" vertex="1">
          <mxGeometry x="414" y="80" width="60" height="30" as="geometry" />
        </mxCell>
        <mxCell id="z5tMKnNC0yyqLdrw48rh-34" value="prev" style="text;html=1;strokeColor=none;fillColor=none;align=center;verticalAlign=middle;whiteSpace=wrap;rounded=0;" parent="1" vertex="1">
          <mxGeometry x="414" y="120" width="60" height="30" as="geometry" />
        </mxCell>
        <mxCell id="z5tMKnNC0yyqLdrw48rh-35" value="set" style="text;html=1;strokeColor=none;fillColor=none;align=center;verticalAlign=middle;whiteSpace=wrap;rounded=0;" parent="1" vertex="1">
          <mxGeometry x="414" y="160" width="60" height="30" as="geometry" />
        </mxCell>
        <mxCell id="z5tMKnNC0yyqLdrw48rh-36" value="cat" style="rounded=0;whiteSpace=wrap;html=1;" parent="1" vertex="1">
          <mxGeometry x="467" y="45" width="70" height="20" as="geometry" />
        </mxCell>
        <mxCell id="z5tMKnNC0yyqLdrw48rh-37" value="" style="rounded=0;whiteSpace=wrap;html=1;" parent="1" vertex="1">
          <mxGeometry x="487" y="80" width="30" height="30" as="geometry" />
        </mxCell>
        <mxCell id="z5tMKnNC0yyqLdrw48rh-38" value="" style="rounded=0;whiteSpace=wrap;html=1;" parent="1" vertex="1">
          <mxGeometry x="487" y="120" width="30" height="30" as="geometry" />
        </mxCell>
        <mxCell id="z5tMKnNC0yyqLdrw48rh-39" value="" style="rounded=0;whiteSpace=wrap;html=1;" parent="1" vertex="1">
          <mxGeometry x="487" y="160" width="30" height="30" as="geometry" />
        </mxCell>
        <mxCell id="z5tMKnNC0yyqLdrw48rh-42" value="" style="ellipse;whiteSpace=wrap;html=1;aspect=fixed;fillColor=#050505;container=0;" parent="1" vertex="1">
          <mxGeometry x="494.5" y="167.5" width="15" height="15" as="geometry" />
        </mxCell>
        <mxCell id="q4AhrPq9-A3EefYoWeDi-1" value="" style="shape=sumEllipse;perimeter=ellipsePerimeter;whiteSpace=wrap;html=1;backgroundOutline=1;" vertex="1" parent="1">
          <mxGeometry x="494.5" y="88.5" width="13" height="13" as="geometry" />
        </mxCell>
        <mxCell id="q4AhrPq9-A3EefYoWeDi-2" value="" style="shape=sumEllipse;perimeter=ellipsePerimeter;whiteSpace=wrap;html=1;backgroundOutline=1;" vertex="1" parent="1">
          <mxGeometry x="496.5" y="128.5" width="13" height="13" as="geometry" />
        </mxCell>
        <mxCell id="q4AhrPq9-A3EefYoWeDi-10" value="" style="endArrow=classic;html=1;curved=1;entryX=0;entryY=0.75;entryDx=0;entryDy=0;" edge="1" parent="1" target="z5tMKnNC0yyqLdrw48rh-31">
          <mxGeometry width="50" height="50" relative="1" as="geometry">
            <mxPoint x="336" y="135" as="sourcePoint" />
            <mxPoint x="580" y="150" as="targetPoint" />
          </mxGeometry>
        </mxCell>
      </root>
    </mxGraphModel>
  </diagram>
</mxfile>
